<svg width="184" height="36" viewBox="0 0 184 36" fill="none" xmlns="http://www.w3.org/2000/svg">
<g clip-path="url(#clip0_1_6148)">
<path d="M6.11051 14.0657C6.11051 12.6171 7.14605 11.8371 8.67795 11.8371C10.5436 11.8371 11.5792 13.0886 11.99 15.3171L16.9109 14.46C16.0551 10.1057 12.9741 7.04572 8.42121 7.04572C4.03944 7.07143 0.616186 10.1314 0.616186 14.5714C0.616186 22.1914 11.4936 24 11.4936 28.8257C11.5072 29.1613 11.449 29.4959 11.323 29.8071C11.197 30.1183 11.0061 30.399 10.763 30.6303C10.5199 30.8616 10.2302 31.0382 9.91345 31.1483C9.59666 31.2584 9.26004 31.2994 8.92614 31.2686C6.29023 31.2686 5.46009 29.1857 5.10065 26.8543L0 28.2257C0.855814 33.0943 3.7827 36 8.84912 36C13.5647 36 16.9793 33.4286 16.9793 28.4829C16.9793 20.1857 6.11051 18.4286 6.11051 14.0657Z" fill="white"/>
<path d="M28.2418 0.068573H22.4651V7.58572H19.2558V12.36H22.4651V29.7257C22.4651 34.0114 24.8956 36 29.2431 36C30.22 36.0388 31.1974 35.9349 32.1444 35.6914V30.7114H30.2273C28.8837 30.7114 28.259 29.8543 28.259 28.4314V12.36H32.1444V7.58572H28.2418V0.068573Z" fill="white"/>
<path d="M53.0605 14.64C53.0605 9.55714 50.0052 7.07143 44.6221 7.07143C39.2391 7.07143 35.6104 10.1314 35.3023 15.78H41.0791C41.1903 13.3971 41.7552 11.8371 44.3911 11.8371C46.3081 11.8371 47.2409 13.0886 47.2409 15.42V17.0743C38.9053 20.2371 34.8744 23.6057 34.8744 29.7257C34.8744 33.3 36.8342 36 40.771 36C43.5695 36 45.3753 35.0657 47.549 33.3C47.6004 33.9771 47.8143 34.7057 47.8657 35.4771H53.4028C53.2177 34.5183 53.1032 33.5471 53.0605 32.5714V14.64ZM47.258 28.6371C46.2739 30.0343 44.9816 31.2086 43.3727 31.2086C41.661 31.2086 40.6854 30.48 40.6854 28.6371C40.6854 26.2029 41.9777 24.2829 47.258 21.2743V28.6371Z" fill="white"/>
<path d="M69.5178 12.36V7.58572H65.6324V0.068573H59.8385V7.58572H56.6292V12.36H59.8385V29.7257C59.8385 34.0114 62.269 36 66.6166 36C67.5934 36.0383 68.5707 35.9344 69.5178 35.6914V30.7114H67.6093C66.2657 30.7114 65.6409 29.8543 65.6409 28.4314V12.36H69.5178Z" fill="white"/>
<path d="M79.1457 7.58572H73.3433V35.4771H79.1457V7.58572Z" fill="white"/>
<path d="M79.1457 0H73.3433V5.28857H79.1457V0Z" fill="white"/>
<path d="M89.501 14.0657C89.501 12.6171 90.528 11.8371 92.0685 11.8371C93.9341 11.8371 94.9697 13.0886 95.3805 15.3171L100.301 14.46C99.4456 10.1057 96.3647 7.04572 91.8117 7.04572C87.4556 7.04572 84.0409 10.1057 84.0409 14.5114C84.0409 22.1314 94.9098 23.94 94.9098 28.7657C94.9234 29.1013 94.8652 29.4359 94.7392 29.7471C94.6132 30.0583 94.4223 30.339 94.1792 30.5703C93.9361 30.8016 93.6464 30.9782 93.3296 31.0883C93.0129 31.1984 92.6762 31.2394 92.3423 31.2086C89.7064 31.2086 88.9191 29.1257 88.5083 26.7943L83.4419 28.2C84.2977 33.0686 87.216 35.9743 92.291 35.9743C96.998 35.9743 100.421 33.4029 100.421 28.4571C100.37 20.1857 89.501 18.4286 89.501 14.0657Z" fill="white"/>
<path d="M111.649 0.068573H105.856V7.58572H102.646V12.36H105.856V29.7257C105.856 34.0114 108.286 36 112.634 36C113.611 36.0383 114.588 35.9344 115.535 35.6914V30.7114H113.618C112.274 30.7114 111.649 29.8543 111.649 28.4314V12.36H115.535V7.58572H111.649V0.068573Z" fill="white"/>
<path d="M136.442 14.64C136.442 9.55714 133.387 7.07143 128.004 7.07143C122.621 7.07143 119.001 10.1314 118.693 15.78H124.487C124.589 13.3971 125.163 11.8371 127.799 11.8371C129.716 11.8371 130.649 13.0886 130.649 15.42V17.0743C122.313 20.2371 118.273 23.6057 118.273 29.7257C118.273 33.3 120.242 36 124.179 36C126.969 36 128.783 35.0657 130.957 33.3C131.008 33.9771 131.213 34.7057 131.265 35.4771H136.81C136.615 34.5047 136.492 33.5192 136.442 32.5286V14.64ZM130.649 28.6371C129.664 30.0343 128.372 31.2086 126.763 31.2086C125.009 31.2086 124.076 30.48 124.076 28.6371C124.076 26.2029 125.368 24.2829 130.649 21.2743V28.6371Z" fill="white"/>
<path d="M175.553 13.2857C173.586 14.4407 171.883 15.9973 170.555 17.8543L169.229 19.7743C169.032 20.0486 168.844 20.3229 168.792 20.3829L168.39 20.9571L167.166 22.7229C167.166 22.7229 163.905 27.4371 159.284 29.8371C154.492 32.3314 148.218 32.1686 147.705 32.1514V34.7229C147.703 34.8898 147.734 35.0554 147.796 35.2103C147.858 35.3652 147.95 35.5061 148.067 35.6249C148.184 35.7437 148.324 35.8381 148.478 35.9025C148.631 35.9669 148.796 36 148.963 36H182.34C182.673 36 182.993 35.8672 183.229 35.631C183.465 35.3947 183.598 35.0742 183.598 34.74V11.9229C183.491 11.9503 183.382 11.9647 183.273 11.9657C183.273 11.9657 177.872 12.0686 175.553 13.2857Z" fill="white"/>
<path d="M182.348 -1.59705e-06H148.972C148.638 -1.59705e-06 148.318 0.132748 148.082 0.369044C147.846 0.60534 147.714 0.925826 147.714 1.26V24.0857H147.893C147.893 24.0857 153.302 23.9829 155.596 22.7743C157.563 21.6156 159.266 20.0562 160.593 18.1971L161.946 16.2857L162.374 15.6771C162.425 15.6171 162.647 15.2914 162.776 15.1029C162.904 14.9143 163.46 14.1257 164 13.3371C166.097 10.4359 168.783 8.01147 171.882 6.22286C176.88 3.65143 183.504 3.90857 183.504 3.90857H183.606V1.33714C183.617 1.1653 183.592 0.993125 183.534 0.831237C183.475 0.669349 183.384 0.521185 183.266 0.395887C183.148 0.270589 183.006 0.170817 182.848 0.102727C182.69 0.0346375 182.52 -0.000324588 182.348 -1.59705e-06Z" fill="white"/>
</g>
<defs>
<clipPath id="clip0_1_6148">
<rect width="184" height="36" fill="white"/>
</clipPath>
</defs>
</svg>
